<?xml version="1.0" encoding="UTF-8"?>
<svg id="Layer_1" xmlns="http://www.w3.org/2000/svg" version="1.1" viewBox="0 0 512 512">
  <!-- Generator: Adobe Illustrator 30.2.0, SVG Export Plug-In . SVG Version: 2.1.1 Build 105)  -->
  <defs>
    <style>
      .st0 {
        fill: #ff9a3e;
      }

      .st1 {
        fill: #8e51ff;
      }
    </style>
  </defs>
  <path class="st1" d="M116.04,384.84c-18.1,0-32.76-2.77-43.99-8.33-11.22-5.55-19.49-14.48-24.8-26.79-3.38-8.2-5.85-18.1-7.42-29.69-1.57-11.58-2.35-24.98-2.35-40.19,0-23.65.96-43.74,2.9-60.28,1.93-16.53,4.64-30.47,8.15-41.81,3.5-11.34,7.78-20.75,12.85-28.24,6.75-10.37,17.74-18.64,32.94-24.8,15.21-6.15,36.68-9.23,64.44-9.23,20.75,0,37.47,2.53,50.14,7.6,12.67,5.07,21.84,11.83,27.51,20.27,5.67,8.45,8.51,17.98,8.51,28.6,0,16.17-5.01,29.32-15.02,39.46-10.02,10.14-23.11,18.1-39.28,23.89v1.45c17.62,1.93,31.37,7.6,41.27,17.02,9.89,9.41,14.84,22.93,14.84,40.55,0,13.28-3.75,25.41-11.22,36.38-7.48,10.99-17.44,20.52-29.87,28.6-12.43,8.09-26.43,14.36-42,18.83-15.57,4.47-31.44,6.7-47.61,6.7ZM137.04,325.83c8.45,0,15.87-1.32,22.27-3.98,6.39-2.65,11.46-6.27,15.21-10.86,3.74-4.58,5.61-9.78,5.61-15.57,0-7-3.14-12.85-9.41-17.56-6.28-4.71-16.05-7.06-29.32-7.06-9.66,0-17.74,2.42-24.26,7.24-6.52,4.83-9.77,12.19-9.77,22.08,0,8.93,2.47,15.45,7.42,19.55,4.94,4.11,12.37,6.15,22.27,6.15ZM137.4,219.76c12.07,0,22.02-2.59,29.87-7.78,7.84-5.19,11.77-12,11.77-20.46,0-6.52-2.9-11.7-8.69-15.57-5.79-3.86-14.12-5.79-24.98-5.79s-18.89,2.17-25.52,6.52c-6.64,4.34-9.96,10.99-9.96,19.91,0,7.96,2.47,13.82,7.42,17.56,4.94,3.74,11.64,5.61,20.09,5.61Z"/>
  <path class="st0" d="M359.69,392.08c-20.76,0-37.35-3.5-49.78-10.5-12.43-7-21.67-18.1-27.7-33.31-4.34-10.62-7.6-23.11-9.77-37.47-2.17-14.36-3.26-31.07-3.26-50.14,0-23.41,1.5-42.42,4.53-57.02,3.02-14.6,7.3-26,12.85-34.21,8.45-12.31,19.91-21.96,34.39-28.96,14.48-7,34.51-10.5,60.1-10.5,20.75,0,37.41,2.78,49.96,8.33,12.55,5.55,21.6,13.1,27.15,22.63,5.55,9.54,8.33,20.09,8.33,31.68,0,15.21-4.41,27.58-13.21,37.11-8.81,9.54-20.34,17.2-34.57,22.99v1.45c17.62,1.45,31.37,6.34,41.27,14.66,9.89,8.33,14.84,20.45,14.84,36.38,0,12.55-3.32,24.14-9.96,34.75-6.64,10.62-15.39,19.86-26.25,27.7-10.86,7.85-23.17,13.88-36.93,18.1-13.76,4.22-27.76,6.34-42,6.34ZM370.91,333.07c13.76,0,25.1-2.77,34.03-8.33,8.93-5.55,13.4-12.79,13.4-21.72,0-7.24-3.5-13.21-10.5-17.92-7-4.71-17.98-7.06-32.95-7.06-11.35,0-20.88,2.35-28.6,7.06-7.73,4.71-11.59,12.13-11.59,22.26,0,8.45,3.02,14.84,9.05,19.19,6.03,4.34,15.08,6.52,27.15,6.52ZM371.99,232.43c13.03,0,23.65-2.47,31.86-7.42,8.2-4.94,12.31-11.4,12.31-19.37,0-6.27-3.2-11.34-9.59-15.21-6.4-3.86-15.51-5.79-27.33-5.79-10.86,0-19.86,2.12-26.97,6.34-7.12,4.23-10.68,10.8-10.68,19.73,0,7.48,2.72,12.98,8.15,16.47,5.43,3.5,12.85,5.25,22.27,5.25Z"/>
</svg>